<svg version="1" xmlns="http://www.w3.org/2000/svg" width="1465.333" height="1465.333" viewBox="0 0 1099.000000 1099.000000"><path d="M546.5 8.9c-.9 1.6-10.4 7.5-18.6 11.7l-7.1 3.5-2.6-2.3-2.6-2.3 1.7 2.7 1.6 2.6-5.4 3.1c-2.9 1.7-6.6 4.6-8.2 6.6-1.6 2-3.7 3.5-5 3.5-1.3 0-3.9 2.1-7.2 5.9-5 5.8-11.7 10.1-15.7 10.1-1 0-3.1-.7-4.6-1.4-1.6-.8-2.8-1.1-2.8-.7 0 1.9 6.3 10.3 9.1 12 2.9 1.8 3 1.9 1 2.6-2.6.8-7.1 6.2-7 8.3 0 1.1.2 1.2.6.4.4-1.1 5.4-4.2 6.6-4.2.3 0-.5 1.9-1.6 4.2-2.5 5.1-3.4 15.1-1.7 19.3l1.3 3 .8-2.9c.4-1.6 1.8-3.9 3.1-5.3l2.2-2.4 1.3 5.3c1.5 6.7 1.6 13.3.2 16.1-2 3.8-5.2 6.7-7.3 6.7-1.7 0-1.8.2-.6 1 2.2 1.4 7.5 1.2 11.4-.4l3.4-1.4.6 4c.9 5.5 3 9.2 6.6 11.8l3 2.1v-3c0-4.6 1.6-3.8 2.9 1.4.6 2.5 1.4 4.5 1.7 4.5.3 0 .3-1.2-.1-2.7-.8-3.2-.5-3 2.8 1.8l2.5 3.6-3.8 3.7c-3.8 3.6-3.8 3.7-3.2 9.8.4 4.7.2 5.9-.7 5.3-.8-.4-3 .6-5.7 2.5-2.4 1.7-7.4 4.5-11.2 6.2-3.7 1.6-7.4 3.9-8.3 5-1.1 1.5-3.4 2.3-7.4 2.9-4.4.6-6.5 1.5-8.9 3.7-1.7 1.6-5.9 4.2-9.2 5.7-5.4 2.3-6.4 3.2-7.8 6.8-1.8 4.9-3.4 20.7-4.6 46-.4 10.1-2.6 32.5-4.9 50.2-9.6 76.1-12 101.3-15.6 167.5-2.2 40.5-4.2 61-8.1 81.4-.6 3.7-.6 3.7 2.2 3.1 9.1-2 14.9-4.2 23.3-8.6 8.4-4.4 9.6-4.8 10.4-3.3.5.9 2.4 3.3 4.1 5.3 2.4 2.7 3.7 5.6 5 11.6 1 4.4 2.2 8.7 2.6 9.5.5.9 1.4 5.4 2 10 .6 4.7 2.1 12.5 3.3 17.5 1.1 4.9 2 9.2 2 9.6-.1.3-1.1 7-2.2 15-1.2 7.9-2.9 19.3-4 25.4-1.3 7.8-2.1 18.6-2.5 37-.7 28.5-2 37.9-7.8 54.9-2.9 8.2-3 9.5-2.5 18.4.5 8.6.3 10.2-1.8 15.3-1.9 4.3-2.2 6.4-1.6 8.6.6 2.2.3 4.5-1 8.4-1.1 3-3 11.2-4.4 18.4-4.5 24.6-5.7 38.3-6.4 78.5l-.8 38.5-3.7 19.5c-2 10.7-4.8 25.7-6.3 33.4l-2.6 13.8 1.8 9.3c2 10.4 1.6 19.9-1.1 24-1.3 2-1.4 2.9-.3 5.9 1.1 3.1.8 5.3-2.5 20.3-5.2 23.1-6.1 29.4-4.6 35 1.5 6.2 6.3 12.9 10.9 15.2 8.1 4.2 26.4 5.1 33.1 1.6 5.8-3.1 10.9-10.3 13.8-19.7 2.1-6.6 2.7-22.4 2.4-57.8-.1-11.4-.1-11.6 4.1-21 3.9-8.9 4.2-10 3.7-16.5-.2-3.9-.4-21.9-.4-40-.1-58.6 4.3-84.9 21.9-130.5 4.4-11.3 6.5-21.2 6.5-30.5 0-15.7 1.9-27.5 9.5-60.5 8.5-36.6 13.1-61.2 16.5-88.4 1-8.3 3.2-23.2 4.9-33.1 1.6-9.9 3.4-21.4 4-25.6.6-4.1 2.3-10.6 4-14.5 1.6-3.8 3.5-8.8 4.2-11.2 2-7 2.2-6.7 7.5 10.7 5 16.4 7.4 31.7 8.4 55.1 1 22.8 3.1 49.3 5.6 70.5 1.3 11 1.6 20 1.2 43-.3 16-.1 30.1.3 31.4.6 1.4.4 3.5-.6 5.8-2.2 5.2-1.9 7.7 1.6 13.9l3.2 5.5-1.2 11.2c-.7 6.2-1.9 17-2.7 24.2-2.9 26.7-1.5 44.9 6.8 90 1.1 6 2.3 16.8 2.5 24 .5 11.5.3 13.7-1.7 19.4-1.6 4.9-1.9 7-1.1 9 4.1 10.9 4.5 14.1 2.8 21-1.2 5.2-1.3 7.6-.5 10.7.6 2.1 1.2 13.3 1.4 24.9l.4 21 2.8 2.3c7.3 6 20 9.9 26.6 8.1 3.3-.9 4.2-.7 8.4 2 2.6 1.6 5.8 4.8 7.1 6.9 2.8 4.6 9.2 9 17.6 12.2 7.5 2.8 25.3 3.9 34.7 2.1 12.8-2.4 23.8-7.8 23.8-11.7 0-.8-1.4-4.1-3-7.4-2.9-5.7-3.2-6-8.8-7.6-22.9-6.4-22.4-6.2-35.4-20.1l-7.5-7.9-2.7-11.5c-1.6-6.2-3.7-14.4-4.7-18.1-2-6.7-2-6.7.1-12.5 4.3-11.8 4.4-12.7 2.1-17.1-1.1-2.3-3.2-5.7-4.6-7.8-2.9-4.2-3.1-7.3-1-11.4 1.5-2.8 1.4-3.6-1.5-12.2-4.9-14.8-6.1-30.2-6.1-78.3 0-22.6.4-45.7 1-51.5.6-5.8 1.5-15.1 2.1-20.8.6-5.6 1.2-29 1.4-52 .2-37.2 1.2-63 4.6-119.7.6-9.4 1-27 1-39.3 0-14.4.4-23.1 1.1-24.4.6-1.1 1.7-5.3 2.4-9.2 1.6-9 3.8-20 4.1-20.4.2-.2 2.2 1 4.6 2.6 4.2 2.9 14.4 6.9 15.3 6 .2-.2-.2-3.3-1.1-6.8-.8-3.5-2.3-12.9-3.3-20.9-1.1-8-3.8-22.7-6.1-32.6-2.3-9.9-7.2-33.1-11-51.5s-9.2-44.3-12-57.5c-5.7-27-9.1-45.9-11.6-65-2.1-16.2-2.6-53.3-.8-69.5.7-6.3 1.1-11.6.9-11.8-.2-.2-2.2-.6-4.5-.9-3.4-.5-4.6-1.2-6.5-4.3-1.7-2.7-3.4-4-6.6-4.9-2.4-.7-8.3-2.9-13.1-4.9-8.1-3.4-8.6-3.8-9.2-7.1-.3-1.8-1.5-4.5-2.8-5.8l-2.2-2.3 2.2-6.1c2.4-6.6 1.9-9.2-1.8-10.4-2.7-.9-2.2-2.5 4.4-14.5 7-12.6 11.6-19.8 11.6-18.2 0 2.1-4 13.2-5.7 15.8-.9 1.4-1.4 2.6-1.2 2.9.7.6 9.5-11.8 12.3-17.4l2.8-5.3 2.7 2.6c1.5 1.4 3.6 2.6 4.7 2.6 1.3-.1 1-.5-1.3-1.5-5-2.2-5.7-4.4-3.7-13.1 1.6-7.5 1.6-21.7-.2-28.7l-.7-2.8 4.4 2.3c2.9 1.5 6.5 2.3 10.9 2.5l6.5.3-4.5-2c-7.8-3.6-12.8-8.7-21.5-22.1-4.7-7-9.4-13.7-10.6-14.8-2-1.9-2-1.9 5.8-2 4.3-.1 10.5-.7 13.8-1.3l6-1.3-10-.6c-7.3-.5-15.3-2-30-5.9-17.4-4.6-21.3-5.2-29.7-5.3h-9.7l4.1-4.9c2.3-2.6 3.9-5.1 3.6-5.4-.3-.3-.9 0-1.3.5zM576 140c0 1.3-.5 1.8-1.5 1.4-1.2-.5-1.3-1-.4-2 1.5-1.9 1.9-1.8 1.9.6zm-89.9 283.1c-.6 5.3-2.9 15.7-5 23-5.3 18.1-6.6 24.8-5.2 26.2.6.6 1.1 3.8 1 7.2l-.1 6-2-4.4c-2.9-6.3-3.2-13.2-1.1-24.6 1.7-9 1.7-11.4.6-24.5-.6-8-1.3-21.9-1.5-31l-.3-16.4 4.7-2.6c2.6-1.4 5.6-3.3 6.5-4.3 1.7-1.7 1.8-1 2.7 17 .6 13.4.5 21.6-.3 28.4z"/><path d="M621 80.8c-1.6 1.7-3 3.9-3 4.8 0 1.6.2 1.5 1.6-.4 1.9-2.7 3.4-2.8 6.8-.1 2.2 1.7 2.6 2.8 2.6 7 0 9.1-5.1 19.7-10.5 21.9-1.4.6-1.5.9-.4.9.8.1 2.9-1.4 4.7-3.2 6.7-6.9 9.9-24.6 5.6-30.4-2.9-3.8-4-3.9-7.4-.5z"/></svg>